Coordinates
version=1
nRows=7
nColumns=40
inDegrees=yes

Units are S.I. units (second, meters, Newtons, ...)
If the header above contains a line with 'inDegrees', this indicates whether rotational values are in degrees (yes) or radians (no).

endheader
time	pelvis_tilt	pelvis_list	pelvis_rotation	pelvis_tx	pelvis_ty	pelvis_tz	hip_flexion_r	hip_adduction_r	hip_rotation_r	knee_angle_r	knee_angle_r_beta	ankle_angle_r	subtalar_angle_r	mtp_angle_r	hip_flexion_l	hip_adduction_l	hip_rotation_l	knee_angle_l	knee_angle_l_beta	ankle_angle_l	subtalar_angle_l	mtp_angle_l	lumbar_extension	lumbar_bending	lumbar_rotation	arm_flex_r	arm_add_r	arm_rot_r	elbow_flex_r	pro_sup_r	wrist_flex_r	wrist_dev_r	arm_flex_l	arm_add_l	arm_rot_l	elbow_flex_l	pro_sup_l	wrist_flex_l	wrist_dev_l
      5.35000000	    -10.15433944	     -1.37947702	     -2.91021413	     -0.41546332	      0.89920456	     -1.04359782	     56.96498358	      2.24488827	     -7.92388553	      5.37114500	      0.09374416	      0.78534290	      0.00000000	      0.00000000	     49.72121059	     -0.48734740	     -2.04585207	     65.87231867	      1.14968885	     14.59992328	      0.00000000	      0.00000000	     -7.43503583	     -4.09944771	      7.40315138	     89.97150315	     -8.93240264	     12.82285719	     50.18844111	     20.49128314	      0.00000000	      0.00000000	     89.96321591	    -23.66216135	      3.83448498	     53.02183594	     60.91575578	      0.00000000	      0.00000000
      5.35500000	    -10.10662002	     -1.42130287	     -2.95841131	     -0.41520702	      0.90011749	     -1.04352881	     56.84732710	      2.31424513	     -7.79973541	      5.34792504	      0.09333890	      0.75749765	      0.00000000	      0.00000000	     49.51442898	     -0.51788439	     -1.99927133	     65.60460484	      1.14501636	     14.51942096	      0.00000000	      0.00000000	     -7.45011535	     -4.03475205	      7.46678423	     89.97147552	     -8.99030514	     12.92174543	     50.07586400	     20.51181307	      0.00000000	      0.00000000	     89.96310818	    -23.74333337	      3.90187990	     52.91081939	     60.95253873	      0.00000000	      0.00000000
      5.36000000	    -10.11715705	     -1.41301037	     -2.96907962	     -0.41498195	      0.90078108	     -1.04358801	     56.81379507	      2.30933027	     -7.78957986	      5.34367480	      0.09326472	      0.75743578	      0.00000000	      0.00000000	     49.48419756	     -0.52000487	     -2.00394636	     65.57009051	      1.14441397	     14.50982455	      0.00000000	      0.00000000	     -7.41510308	     -4.02154712	      7.47428062	     89.97140423	     -9.01707208	     12.92069428	     50.08430168	     20.51528421	      0.00000000	      0.00000000	     89.96302031	    -23.77321464	      3.89562879	     52.92530605	     60.95741166	      0.00000000	      0.00000000
      5.36500000	    -10.03251670	     -1.44720616	     -3.00834479	     -0.41467649	      0.90178585	     -1.04363716	     56.64332719	      2.35492095	     -7.68229753	      5.29204069	      0.09236353	      0.75763274	      0.00000000	      0.00000000	     49.19985530	     -0.56056914	     -2.01333293	     65.21650014	      1.13824265	     14.38743090	      0.00000000	      0.00000000	     -7.47173891	     -3.96686566	      7.53710492	     89.97142642	     -9.11041670	     13.06733693	     49.94704584	     20.53614477	      0.00000000	      0.00000000	     89.96291813	    -23.85233382	      4.00817880	     52.81973121	     61.00719720	      0.00000000	      0.00000000
      5.37000000	    -10.04389829	     -1.45116888	     -3.00527766	     -0.41443936	      0.90247681	     -1.04365203	     56.61650603	      2.34873088	     -7.67785392	      5.28699488	      0.09227547	      0.76116792	      0.00000000	      0.00000000	     49.16627166	     -0.56175691	     -2.01582606	     65.19619139	      1.13788820	     14.38036875	      0.00000000	      0.00000000	     -7.42571503	     -3.94720278	      7.54348785	     89.97133091	     -9.12828130	     13.06543756	     49.96680481	     20.54009640	      0.00000000	      0.00000000	     89.96276537	    -23.86990376	      4.00446632	     52.83713741	     61.01125626	      0.00000000	      0.00000000
      5.37500000	    -10.05949120	     -1.46064989	     -3.01906549	     -0.41424442	      0.90313403	     -1.04373873	     56.58083799	      2.35543926	     -7.66615847	      5.28469975	      0.09223541	      0.76657973	      0.00000000	      0.00000000	     49.13286347	     -0.56691863	     -2.01583915	     65.14178105	      1.13693856	     14.36494910	      0.00000000	      0.00000000	     -7.38664379	     -3.91750318	      7.54188453	     89.97126823	     -9.16716085	     13.06597161	     49.97019278	     20.54375801	      0.00000000	      0.00000000	     89.96271128	    -23.90053080	      4.00210967	     52.83841200	     61.01540676	      0.00000000	      0.00000000
      5.38000000	     -9.97140735	     -1.55178224	     -3.03079170	     -0.41395153	      0.90421621	     -1.04376703	     56.40723373	      2.41570961	     -7.55821243	      5.26609605	      0.09191071	      0.76900680	      0.00000000	      0.00000000	     48.82814333	     -0.63777438	     -1.95745040	     64.72981739	      1.12974844	     14.20528133	      0.00000000	      0.00000000	     -7.43972285	     -3.80131606	      7.58264823	     89.97123792	     -9.30447850	     13.22821984	     49.79253327	     20.56397337	      0.00000000	      0.00000000	     89.96259731	    -23.98258344	      4.12284592	     52.68743223	     61.05927941	      0.00000000	      0.00000000
